<?xml version="1.0" encoding="UTF-8" standalone="no"?>
<svg
   xmlns:dc="http://purl.org/dc/elements/1.1/"
   xmlns:cc="http://creativecommons.org/ns#"
   xmlns:rdf="http://www.w3.org/1999/02/22-rdf-syntax-ns#"
   xmlns:svg="http://www.w3.org/2000/svg"
   xmlns="http://www.w3.org/2000/svg"
   id="svg2"
   version="1.1"
   viewBox="0 0 490.04147 504.68829"
   height="504.68829pt"
   width="490.04147pt">
  <metadata
     id="metadata35">
    <rdf:RDF>
      <cc:Work
         rdf:about="">
        <dc:format>image/svg+xml</dc:format>
        <dc:type
           rdf:resource="http://purl.org/dc/dcmitype/StillImage" />
        <dc:title></dc:title>
      </cc:Work>
    </rdf:RDF>
  </metadata>
  <defs
     id="defs33" />
  <g
     transform="translate(-6,-15.101562)"
     id="surface529">
    <path
       id="path5"
       d="m 236.56641,408.23437 c 0,61.59375 -51.61329,111.52344 -115.28516,111.52344 C 57.613281,519.75781 6,469.82812 6,408.23437 6,346.64062 57.613281,296.71484 121.28125,296.71484 c 63.67187,0 115.28516,49.92578 115.28516,111.51953"
       style="fill:#cc1c2b;fill-opacity:1;fill-rule:evenodd;stroke:none" />
    <path
       id="path7"
       d="m 387.50391,221.5 -14.48047,0 c -10.35547,-45.64844 -16.12891,-113.57812 -7.24219,-166.566406 -23.67188,13.042968 -40.17969,35.199218 -57.9375,54.312496 -56.00391,60.28125 -109.28906,121.29688 -152.08203,191.91797 -11.07813,2.625 -10.65235,-6.25 -21.72656,-3.625 34.60937,-52.74609 74.77734,-101.54297 115.87109,-148.46094 33.01172,-37.68749 72.82031,-75.574214 101.39062,-112.249995 7.57422,-9.726563 19.85938,-20.394531 32.58594,-21.726563 -12.32812,62.03125 -8.90625,147.851558 3.6211,206.398438"
       style="fill:#23685c;fill-opacity:1;fill-rule:evenodd;stroke:none" />
    <path
       id="path9"
       d="m 322.32812,373.58203 c -8.41796,-7.27344 -3.6875,-27.69141 -18.10546,-28.96875 -0.67188,5.36328 -8.75,3.32031 -14.48438,3.62109 -0.11328,33.24219 39.47656,88.32422 61.55859,50.69532 -10.86328,-7.2461 -22.61718,-13.59766 -28.96875,-25.34766 M 373.02344,221.5 l 14.48047,0 c 76.35937,4.92187 128.19531,75.54687 101.39062,152.08203 -10.55469,30.14063 -42.24609,56.33594 -68.80078,65.17969 -51.42578,17.125 -120.1875,-8.21485 -141.21875,-61.5586 C 252.77734,311 285.16797,233.48047 373.02344,221.5"
       style="fill:#cc1c2b;fill-opacity:1;fill-rule:evenodd;stroke:none" />
    <path
       id="path11"
       d="m 101.44531,348.23437 c -19.13281,9.83594 -39.937498,17.9961 -61.558591,25.34766 l 0,97.76563 c 25.714843,8.08593 66.121091,1.47656 97.769531,3.62109 20.47266,-10.91016 44.11328,-18.64844 65.17969,-28.96484 l 0,-97.76954 z m 32.58985,-50.6914 c 11.07421,-2.62891 10.64843,6.24609 21.72656,3.62109 22.85937,10.17969 40.64844,21.375 54.3164,39.82813 24.59375,33.21484 27.91407,84.40234 14.48047,115.87109 -8.64062,20.25 -34.91406,44.55469 -57.93359,54.31641 -43.92187,18.625 -93.535156,4.47656 -119.496094,-18.10547 C 24.363281,473.26953 16.207031,450.01562 7.300781,420.65625 l 0,-25.34766 C 24.28125,337.45312 56.457031,294.79687 134.03516,297.54297"
       style="fill:#cc1c2b;fill-opacity:1;fill-rule:evenodd;stroke:none" />
    <path
       id="path13"
       d="m 141.27734,464.10547 c 11.1211,-4.57031 25.89063,-5.48828 28.96875,-18.10156 l -25.34765,0 c -3.03907,4.20312 -4.77735,9.70703 -3.6211,18.10156 m -68.800778,3.62109 c 20.222657,-5.125 63.402348,12.71094 61.558598,-14.48047 -16.82422,-16.0664 -48.914066,3.52344 -61.558598,14.48047 m 43.453128,-86.90234 c -3.23438,14.03906 -13.63672,63.48828 10.86328,61.55469 14.21484,-8.71485 4.32422,-41.53907 7.24219,-61.55469 z m -68.796878,83.28125 c 23.175782,-3.375 37.683594,-15.42188 57.933598,-21.72656 l 0,-61.55469 -57.933598,0 z m 94.144528,-86.90235 0,61.55469 c 8.59375,3.1211 35.22266,-2.05469 54.31641,0 l 0,-79.66015 c -22.28906,1.85546 -34.52734,13.7539 -54.31641,18.10546 m -28.96875,-7.24218 c 20.28125,9.47265 46.10938,-3.7461 57.9375,-14.48438 l -57.9375,0 z m -39.832028,3.62109 32.589848,0 c -1.98047,-5.26172 4.23047,-18.71484 -3.6211,-18.10547 -7.707029,7.98438 -24.82031,6.5625 -28.968748,18.10547 m 130.355468,-25.34766 0,97.76954 c -21.0625,10.3164 -44.70703,18.05468 -65.17578,28.96484 -31.64844,-2.14453 -72.054688,4.46484 -97.765625,-3.62109 l 0,-97.76563 C 61.507812,366.23047 82.3125,358.07031 101.44531,348.23437 Z m 0,0"
       style="fill:#ffffff;fill-opacity:1;fill-rule:evenodd;stroke:none" />
    <path
       id="path15"
       d="m 101.44531,355.47656 c 7.85157,-0.60937 1.64063,12.84375 3.6211,18.10547 l -32.589848,0 C 76.625,362.03906 93.738281,363.46094 101.44531,355.47656"
       style="fill:#cc1c2b;fill-opacity:1;fill-rule:evenodd;stroke:none" />
    <path
       id="path17"
       d="m 112.30859,355.47656 57.9375,0 c -11.82812,10.73828 -37.65625,23.95703 -57.9375,14.48438 z m 0,0"
       style="fill:#cc1c2b;fill-opacity:1;fill-rule:evenodd;stroke:none" />
    <path
       id="path19"
       d="m 296.98047,355.47656 10.86328,0 c 3.20312,22.14453 15.41797,35.27735 32.58984,43.45313 -7.32031,18.98047 -27.62109,-12.76172 -36.21093,-21.72657 -1.71094,-1.78515 -6.09766,-14.1289 -7.24219,-21.72656"
       style="fill:#cc1c2b;fill-opacity:1;fill-rule:evenodd;stroke:none" />
    <path
       id="path21"
       d="m 195.59375,359.09766 0,79.66015 c -19.09375,-2.05469 -45.72266,3.11719 -54.31641,0 l 0,-61.55469 c 19.78907,-4.35156 32.02735,-16.25 54.31641,-18.10546"
       style="fill:#cc1c2b;fill-opacity:1;fill-rule:evenodd;stroke:none" />
    <path
       id="path23"
       d="m 47.128906,380.82422 57.937504,0 0,61.55859 c -20.25391,6.30078 -34.757816,18.34766 -57.937504,21.72266 z m 0,0"
       style="fill:#cc1c2b;fill-opacity:1;fill-rule:evenodd;stroke:none" />
    <path
       id="path25"
       d="m 134.03516,380.82422 c -2.91797,20.01562 6.97265,52.83984 -7.24219,61.55859 -24.5,1.92969 -14.09766,-47.51953 -10.86328,-61.55859 z m 0,0"
       style="fill:#cc1c2b;fill-opacity:1;fill-rule:evenodd;stroke:none" />
    <path
       id="path27"
       d="m 134.03516,453.24219 c 1.84375,27.19531 -41.335941,9.35937 -61.558598,14.48437 12.644532,-10.95703 44.734378,-30.54297 61.558598,-14.48437"
       style="fill:#cc1c2b;fill-opacity:1;fill-rule:evenodd;stroke:none" />
    <path
       id="path29"
       d="m 144.89844,446.00391 25.34765,0 c -3.07812,12.61328 -17.84765,13.53125 -28.96875,18.10156 -1.15625,-8.39453 0.58203,-13.90235 3.6211,-18.10156"
       style="fill:#cc1c2b;fill-opacity:1;fill-rule:evenodd;stroke:none" />
  </g>
</svg>
